<svg width="18" height="18" viewBox="0 0 18 18" fill="none" xmlns="http://www.w3.org/2000/svg">
<path d="M9.02904 6.36816C8.40172 6.36816 7.80011 6.61736 7.35653 7.06094C6.91296 7.50451 6.66376 8.10613 6.66376 8.73344C6.66376 9.36075 6.91296 9.96237 7.35653 10.4059C7.80011 10.8495 8.40172 11.0987 9.02904 11.0987C9.65635 11.0987 10.258 10.8495 10.7015 10.4059C11.1451 9.96237 11.3943 9.36075 11.3943 8.73344C11.3943 8.10613 11.1451 7.50451 10.7015 7.06094C10.258 6.61736 9.65635 6.36816 9.02904 6.36816Z" fill="#FFE8AA"/>
<path fill-rule="evenodd" clip-rule="evenodd" d="M5.22306 2.24339C7.75284 1.96314 10.3058 1.96314 12.8356 2.24339C14.2177 2.39768 15.3319 3.4857 15.4942 4.87285C15.794 7.43803 15.794 10.0294 15.4942 12.5946C15.3319 13.9817 14.2177 15.0697 12.8363 15.2248C10.3063 15.5051 7.75308 15.5051 5.22306 15.2248C3.84101 15.0697 2.72678 13.9817 2.56449 12.5953C2.26463 10.0299 2.26463 7.43827 2.56449 4.87285C2.72678 3.4857 3.84101 2.39768 5.22306 2.24339ZM12.6682 4.36704C12.4752 4.36704 12.2901 4.44372 12.1536 4.5802C12.0171 4.71669 11.9404 4.9018 11.9404 5.09482C11.9404 5.28784 12.0171 5.47295 12.1536 5.60944C12.2901 5.74592 12.4752 5.8226 12.6682 5.8226C12.8612 5.8226 13.0464 5.74592 13.1828 5.60944C13.3193 5.47295 13.396 5.28784 13.396 5.09482C13.396 4.9018 13.3193 4.71669 13.1828 4.5802C13.0464 4.44372 12.8612 4.36704 12.6682 4.36704ZM5.57239 8.73371C5.57239 7.81687 5.9366 6.93758 6.58491 6.28928C7.23321 5.64098 8.1125 5.27677 9.02933 5.27677C9.94617 5.27677 10.8255 5.64098 11.4738 6.28928C12.1221 6.93758 12.4863 7.81687 12.4863 8.73371C12.4863 9.65055 12.1221 10.5298 11.4738 11.1781C10.8255 11.8264 9.94617 12.1907 9.02933 12.1907C8.1125 12.1907 7.23321 11.8264 6.58491 11.1781C5.9366 10.5298 5.57239 9.65055 5.57239 8.73371Z" fill="#FFE8AA"/>
</svg>
